<?xml version="1.0" encoding="UTF-8" standalone="no"?>
<svg xmlns:rdf="http://www.w3.org/1999/02/22-rdf-syntax-ns#" xmlns="http://www.w3.org/2000/svg" height="324.78923" width="290.61127" version="1.1" xmlns:cc="http://creativecommons.org/ns#" xmlns:dc="http://purl.org/dc/elements/1.1/" viewBox="0 0 290.61127 324.78923"><path d="M290.543 127.31a.523.523 0 0 0-.267-.747 59.823 59.823 0 0 0-12.679-3.371.49.49 0 0 1-.428-.485.496.496 0 0 1 .054-.226c3.423-6.864 5.638-14.75 7.289-23.293a.514.514 0 0 0-.626-.598 141.747 141.747 0 0 0-23.833 9.118.48.48 0 0 1-.678-.329c-1.077-4.745-2.357-10.1-4.985-14.738a.518.518 0 0 0-.75-.159 128.387 128.387 0 0 0-20.719 18.553.496.496 0 0 1-.64.09.502.502 0 0 1-.16-.168 22.793 22.793 0 0 0-6.255-6.786.496.496 0 0 0-.672.09c-9.956 12.313-22.486 26.3-38.656 37.88a.44.44 0 0 1-.675-.482c3.67-12.007 9.198-23.449 14.585-33.956a.49.49 0 0 0-.324-.706 53.591 53.591 0 0 0-8.157-.964.486.486 0 0 1-.459-.512v-.006a.482.482 0 0 1 .084-.24c6.816-10.105 12.026-22.397 15.33-33.448a.48.48 0 0 0-.48-.617 68.567 68.567 0 0 0-18.271 3.511.471.471 0 0 1-.623-.532c1.665-9.549.893-20.258-.927-30.181a.494.494 0 0 0-.659-.378 81.822 81.822 0 0 0-12.816 6.365.488.488 0 0 1-.508.001.483.483 0 0 1-.23-.453 92.817 92.817 0 0 0-2.289-26.894.472.472 0 0 0-.568-.35l-.044.012a56.346 56.346 0 0 0-9.649 4.779.492.492 0 0 1-.723-.266c-3.09-9.045-8.049-17.842-13.392-26.58a.513.513 0 0 0-.874 0c-5.344 8.738-10.302 17.535-13.392 26.58a.493.493 0 0 1-.723.266 56.381 56.381 0 0 0-9.65-4.779.472.472 0 0 0-.599.294l-.012.044a92.796 92.796 0 0 0-2.288 26.894.485.485 0 0 1-.74.451 81.842 81.842 0 0 0-12.816-6.364.495.495 0 0 0-.658.377c-1.82 9.924-2.592 20.633-.927 30.182a.471.471 0 0 1-.375.551h-.004a.471.471 0 0 1-.244-.019 68.567 68.567 0 0 0-18.272-3.511.48.48 0 0 0-.479.617c3.304 11.052 8.514 23.343 15.33 33.448a.483.483 0 0 1-.375.758 53.523 53.523 0 0 0-8.157.964.493.493 0 0 0-.325.706c5.397 10.525 10.933 21.986 14.604 34.015a.426.426 0 0 1-.648.475c-14.325-10.016-28.071-24.709-38.7-37.93a.493.493 0 0 0-.673-.091 22.795 22.795 0 0 0-6.254 6.785.498.498 0 0 1-.8.078 128.394 128.394 0 0 0-20.72-18.553.518.518 0 0 0-.723.118q-.014.02-.026.041c-2.629 4.639-3.909 9.993-4.986 14.739a.48.48 0 0 1-.469.376.49.49 0 0 1-.21-.048A141.747 141.747 0 0 0 6.727 98.59a.514.514 0 0 0-.626.598c1.652 8.544 3.866 16.43 7.29 23.293a.493.493 0 0 1-.376.711 59.782 59.782 0 0 0-12.678 3.37.523.523 0 0 0-.267.748 81.062 81.062 0 0 0 17.913 21.844.491.491 0 0 1-.066.804 40.788 40.788 0 0 0-7.553 5.812.517.517 0 0 0 0 .732 182.391 182.391 0 0 0 28.349 22.8.513.513 0 0 1 .031.837 63.186 63.186 0 0 0-9.963 9.372.513.513 0 0 0 .055.714 89.54 89.54 0 0 0 25.813 15.934.508.508 0 0 1 .11.88 53.017 53.017 0 0 0-8.994 8.722.514.514 0 0 0-.016.634.51.51 0 0 0 .172.147c7.057 3.627 15.624 5.971 24.509 7.58a.387.387 0 0 1 .043.752 164.856 164.856 0 0 0-31.745 13.604.511.511 0 0 0-.056.858c7.313 5.432 14.771 10.166 23.45 13.55a.504.504 0 0 1 .137.863 160.242 160.242 0 0 0-30.03 32.9.515.515 0 0 0 .49.803 244.763 244.763 0 0 0 33.027-6.083.484.484 0 0 1 .564.688 129.775 129.775 0 0 0-5.657 13.18.52.52 0 0 0 .542.692 265.208 265.208 0 0 0 28.708-4.358.498.498 0 0 1 .524.765 65.735 65.735 0 0 0-7.616 16.66.518.518 0 0 0 .589.66c19.106-3.65 36.493-9.117 51.918-16.52a.646.646 0 0 1 .924.548 47.974 47.974 0 0 0 13.231 30.882.706.706 0 0 0 .994.036l9.982-9.214a.756.756 0 0 0 .06-1.056c-1.974-2.257-11.06-12.567-9.452-20.406a1.505 1.505 0 0 1 2.096-1.04c11.509 5.207 35.36 13.158 54.088 16.773a.501.501 0 0 0 .568-.644 65.748 65.748 0 0 0-7.622-16.679.498.498 0 0 1 .524-.764 265.344 265.344 0 0 0 28.708 4.357.52.52 0 0 0 .542-.692 129.931 129.931 0 0 0-5.656-13.18.484.484 0 0 1 .563-.688 244.675 244.675 0 0 0 33.027 6.082.515.515 0 0 0 .489-.802 160.265 160.265 0 0 0-30.03-32.9.508.508 0 0 1-.18-.472.502.502 0 0 1 .318-.391c8.679-3.384 16.136-8.118 23.45-13.55a.513.513 0 0 0-.056-.858 164.842 164.842 0 0 0-31.745-13.604.387.387 0 0 1 .044-.753c8.884-1.608 17.45-3.953 24.508-7.58a.511.511 0 0 0 .156-.78 52.982 52.982 0 0 0-8.995-8.723.508.508 0 0 1 .11-.88 89.53 89.53 0 0 0 25.814-15.934.515.515 0 0 0 .054-.713 63.118 63.118 0 0 0-9.963-9.372.514.514 0 0 1 .032-.837 182.37 182.37 0 0 0 28.349-22.8.514.514 0 0 0 0-.731 40.768 40.768 0 0 0-7.553-5.813.491.491 0 0 1-.066-.804 81.035 81.035 0 0 0 17.913-21.844Z" style="fill:#ffffff"/></svg>